<svg width="40" height="36" viewBox="0 0 40 36" fill="none" xmlns="http://www.w3.org/2000/svg">
    <rect x="4" y="2" width="32" height="32" rx="16" fill="#1E1E1E"/>
    <g filter="url(#filter0_d_142_3957)">
        <path d="M20.5156 15.2204C20.6459 15.4807 20.6069 15.7915 20.5022 16.0632L20.3597 16.4327C20.2521 16.7119 19.9837 16.8961 19.6845 16.8961V16.8961C19.3327 16.8961 19.0414 16.6389 18.922 16.308C18.8512 16.1114 18.7631 15.9287 18.6579 15.7597C18.4541 15.4326 18.2046 15.155 17.9094 14.9268C17.6141 14.6987 17.2835 14.5265 16.9176 14.4103C16.5558 14.2941 16.1711 14.236 15.7636 14.236C15.0276 14.236 14.3685 14.4275 13.7863 14.8106C13.2082 15.1937 12.7508 15.7554 12.414 16.4958C12.0813 17.2362 11.915 18.1401 11.915 19.2076C11.915 20.2837 12.0813 21.1919 12.414 21.9323C12.7508 22.6727 13.2103 23.2322 13.7925 23.611C14.3747 23.9898 15.0296 24.1792 15.7574 24.1792C16.1607 24.1792 16.5433 24.1233 16.9051 24.0113C17.2711 23.8951 17.6017 23.7251 17.8969 23.5013C18.1922 23.2774 18.4214 22.9602 18.6252 22.6374C18.8522 22.2778 18.871 22.2222 19.0758 21.78C19.8358 21.7826 21.022 21.7865 21.022 21.7865C20.777 22.5869 20.616 22.8889 20.3817 23.3192C20.0865 23.8616 19.7412 24.3708 19.2754 24.7668C18.8138 25.1585 18.2857 25.4619 17.6911 25.6772C17.0964 25.8924 16.4477 26 15.7449 26C14.6388 26 13.6532 25.7288 12.7882 25.1865C11.9233 24.6398 11.2413 23.8585 10.7423 22.8427C10.2474 21.8268 10 20.6151 10 19.2076C10 17.7957 10.2495 16.584 10.7485 15.5725C11.2475 14.5567 11.9295 13.7775 12.7945 13.2352C13.6594 12.6885 14.6429 12.4152 15.7449 12.4152C16.4227 12.4152 17.0548 12.5163 17.6412 12.7187C18.2317 12.9167 18.7619 13.2094 19.2318 13.5968C19.7017 13.9799 20.0905 14.449 20.3982 15.0043C20.4531 15.1026 20.4889 15.1668 20.5156 15.2204Z" fill="#FFED35"/>
        <path d="M21.022 21.7865C21.022 21.7865 19.8358 21.7826 19.0758 21.78C20.3036 18.2526 22.0592 13.2087 22.8113 11.0478C23.0304 10.4183 23.6227 10 24.2892 10V10C24.9559 10 25.5496 10.4221 25.7685 11.0519L29.5557 21.9454C29.7731 22.5705 29.3089 23.2232 28.6471 23.2232V23.2232C28.2332 23.2232 27.8657 22.9584 27.7346 22.5658L24.3583 12.4494C24.3488 12.421 24.3222 12.4019 24.2923 12.4019V12.4019C24.2626 12.4019 24.2361 12.4208 24.2265 12.4489L21.022 21.7865ZM20.9678 18.8844C20.9678 18.4208 21.3436 18.045 21.8072 18.045H25.0808C25.4354 18.045 25.7517 18.2678 25.8711 18.6017V18.6017C26.0666 19.1484 25.6614 19.7237 25.0808 19.7237H21.8072C21.3436 19.7237 20.9678 19.3479 20.9678 18.8844V18.8844Z" fill="#FFED35"/>
    </g>
</svg>
