<svg width="90" height="90" viewBox="0 0 90 90" fill="none" xmlns="http://www.w3.org/2000/svg">
<rect width="90" height="90" rx="45" fill="#FFED35"/>
<path d="M45.146 34.2909C45.4501 34.8126 45.4913 35.4464 45.2698 36.0081L43.1749 41.3203C43.0693 41.5879 42.811 41.7637 42.5234 41.7637V41.7637C42.1838 41.7637 41.8955 41.5195 41.8201 41.1885C41.5553 40.0269 41.1323 38.9894 40.5512 38.076C39.8759 37.0144 39.0488 36.1134 38.0702 35.373C37.0916 34.6327 35.9958 34.0739 34.7829 33.6968C33.5837 33.3196 32.3087 33.1311 30.9579 33.1311C28.5183 33.1311 26.3336 33.7527 24.4039 34.9959C22.488 36.2391 20.9718 38.062 19.8553 40.4646C18.7526 42.8673 18.2013 45.8007 18.2013 49.2649C18.2013 52.7571 18.7526 55.7045 19.8553 58.1071C20.9718 60.5098 22.4949 62.3257 24.4246 63.555C26.3542 64.7842 28.5251 65.3988 30.9373 65.3988C32.2743 65.3988 33.5423 65.2172 34.7415 64.854C35.9544 64.4769 37.0502 63.9251 38.0289 63.1987C39.0075 62.4724 39.7675 61.4429 40.4429 60.3952C41.1952 59.2283 41.2575 59.048 41.9365 57.613C44.4556 57.6212 48.3872 57.634 48.3872 57.634C47.575 60.2313 47.0415 61.2114 46.265 62.6079C45.2864 64.3679 44.1418 66.0204 42.5981 67.3055C41.0681 68.5767 39.3176 69.5615 37.3466 70.2599C35.3755 70.9584 33.2253 71.3076 30.8959 71.3076C27.2295 71.3076 23.9628 70.4276 21.0958 68.6675C18.2289 66.8935 15.9684 64.3582 14.3144 61.0615C12.6741 57.7649 11.854 53.8327 11.854 49.2649C11.854 44.6832 12.681 40.751 14.335 37.4683C15.9891 34.1717 18.2495 31.6434 21.1165 29.8833C23.9835 28.1093 27.2433 27.2223 30.8959 27.2223C33.1426 27.2223 35.2377 27.5506 37.1812 28.2071C39.1384 28.8496 40.8958 29.7995 42.4534 31.0567C43.755 32.0957 44.3803 32.9775 45.146 34.2909Z" fill="#1A1A1A"/>
<path d="M48.3872 57.634C48.3872 57.634 44.4556 57.6212 41.9365 57.613C46.4909 44.8018 53.2365 25.8269 55.0588 20.7009C55.3423 19.9035 56.0921 19.3845 56.9384 19.3845H61.4956C62.3422 19.3845 63.0971 19.9175 63.3803 20.7153L77.1976 59.6272C77.6599 60.9291 76.6945 62.2965 75.3129 62.2965H72.7952C71.9393 62.2965 71.1783 61.7519 70.9022 60.9418L59.4466 27.3363C59.4146 27.2423 59.3262 27.1791 59.2269 27.1791V27.1791C59.1282 27.1791 59.0404 27.2414 59.0077 27.3344L48.3872 57.634ZM48.2077 47.4921C48.2077 46.3875 49.1031 45.4921 50.2077 45.4921H60.1113C60.9513 45.4921 61.7017 46.0169 61.9899 46.8059L62.5188 48.2537C62.9954 49.5585 62.0293 50.9399 60.6402 50.9399H50.2077C49.1031 50.9399 48.2077 50.0444 48.2077 48.9399V47.4921Z" fill="#1A1A1A"/>
</svg>
