<svg width="50" height="50" viewBox="0 0 50 50" fill="none" xmlns="http://www.w3.org/2000/svg">
    <path d="M26.0742 20.5422C26.2162 20.8945 26.2031 21.2863 26.0744 21.6436V21.6436C25.8261 22.3328 25.1723 22.7922 24.4398 22.7922H24.2668C23.3055 22.7922 22.5208 22.082 22.122 21.2074C22.0122 20.9666 21.8878 20.7373 21.7487 20.5195C21.331 19.8652 20.8195 19.3099 20.2142 18.8537C19.609 18.3974 18.9312 18.053 18.1811 17.8206C17.4394 17.5882 16.6508 17.4719 15.8154 17.4719C14.3065 17.4719 12.9553 17.855 11.7619 18.6212C10.5769 19.3874 9.63918 20.5109 8.94866 21.9916C8.26668 23.4723 7.92568 25.2802 7.92568 27.4152C7.92568 29.5674 8.26668 31.3839 8.94866 32.8646C9.63918 34.3453 10.5812 35.4645 11.7746 36.2221C12.9681 36.9797 14.3108 37.3584 15.8026 37.3584C16.6295 37.3584 17.4138 37.2465 18.1555 37.0227C18.9057 36.7903 19.5834 36.4502 20.1887 36.0025C20.7939 35.5549 21.264 34.9204 21.6817 34.2747C22.147 33.5556 22.1855 33.4444 22.6054 32.5601C24.1635 32.5651 26.5951 32.573 26.5951 32.573C26.0928 34.1737 25.7628 34.7778 25.2826 35.6384C24.6773 36.7231 23.9694 37.7415 23.0146 38.5336C22.0684 39.317 20.9857 39.9239 19.7667 40.3543C18.5476 40.7848 17.2177 41 15.7771 41C13.5094 41 11.4891 40.4576 9.7159 39.3729C7.94273 38.2796 6.54466 36.7171 5.52168 34.6854C4.50723 32.6537 4 30.2303 4 27.4152C4 24.5915 4.51149 22.1681 5.53447 20.145C6.55745 18.1133 7.95552 16.5551 9.72869 15.4704C11.5019 14.377 13.518 13.8304 15.7771 13.8304C17.1666 13.8304 18.4624 14.0327 19.6644 14.4373C20.8749 14.8333 21.9618 15.4187 22.9251 16.1935C23.8884 16.9597 24.6855 17.8981 25.3163 19.0086C25.5794 19.4681 25.8569 20.0031 26.0742 20.5422Z" fill="#FFED35"/>
    <path d="M26.5951 32.573C26.5951 32.573 24.1635 32.5651 22.6054 32.5601C25.287 25.0437 29.1967 14.0848 30.5384 10.3241C30.8225 9.52776 31.5752 9 32.4207 9H34.1653C35.0111 9 35.7654 9.53198 36.0493 10.3287L44.064 32.8198C44.5203 34.1002 43.5709 35.4465 42.2115 35.4465V35.4465C41.3707 35.4465 40.6229 34.9119 40.3508 34.1164L33.4352 13.901C33.4153 13.8428 33.3607 13.8038 33.2992 13.8038V13.8038C33.2382 13.8038 33.1838 13.8423 33.1636 13.8998L26.5951 32.573ZM26.4841 26.7687C26.4841 25.8416 27.2357 25.09 28.1628 25.09H35.8108C36.5249 25.09 37.1609 25.5418 37.396 26.2162V26.2162C37.7763 27.3073 36.9662 28.4475 35.8108 28.4475H28.1628C27.2357 28.4475 26.4841 27.6959 26.4841 26.7687V26.7687Z" fill="#FFED35"/>
</svg>
